C:\GBW_MyPrograms\KinderuniversiteitApp\Resultaten\New_group\Reus_v1.mot
version=1
nRows=13
nColumns=31
inDegrees=yes
endheader
                time	         pelvis_tilt	           pelvis_tx	           pelvis_ty	       hip_flexion_r	        knee_angle_r	       ankle_angle_r	       hip_flexion_l	        knee_angle_l	       ankle_angle_l	    lumbar_extension	          arm_flex_r	          arm_flex_l	hamstrings_r/activation	bifemsh_r/activation	glut_max_r/activation	iliopsoas_r/activation	rect_fem_r/activation	  vasti_r/activation	gastroc_r/activation	 soleus_r/activation	tib_ant_r/activation	hamstrings_l/activation	bifemsh_l/activation	glut_max_l/activation	iliopsoas_l/activation	rect_fem_l/activation	  vasti_l/activation	gastroc_l/activation	 soleus_l/activation	tib_ant_l/activation	
          0.00000000	          1.23549280	          0.00000000	          5.64110241	          9.49998943	        -23.65867227	         11.11310346	          2.99846118	        -18.11197365	         11.55769880	         -5.55823468	         -3.69438940	         -3.69438624	          0.16882386	          0.80474548	          0.07831894	          0.79827087	          0.52570474	          0.05329617	          0.17473399	          0.06936673	          0.74441456	          0.11333664	          0.22735057	          0.75749376	          0.15522996	          0.87033103	          0.79688405	          0.43659243	          0.93230291	          0.34463564	
          0.01761063	          1.16726921	          0.03981160	          5.63231150	         11.44926581	        -27.26365616	          9.85885488	          3.11242426	        -19.07959487	         12.34123757	         -5.63740664	         -3.51282116	         -3.51281737	          0.13068220	          0.62496220	          0.06330098	          0.72454819	          0.77894787	          0.42950566	          0.14593179	          0.08767737	          0.79066414	          0.08879410	          0.25433768	          0.73914070	          0.25135199	          0.93467293	          0.89799102	          0.49515049	          0.84412047	          0.39976834	
          0.03522127	          1.07443034	          0.08037992	          5.62413541	         13.33528822	        -30.92989016	         10.73014184	          3.18050926	        -19.91865141	         13.03657698	         -5.67315836	         -3.35651676	         -3.35651323	          0.10125042	          0.48736742	          0.05603188	          0.65804658	          0.89568809	          0.61299678	          0.12597554	          0.09609468	          0.74041680	          0.07060188	          0.28261946	          0.72765838	          0.29274305	          0.94779182	          0.91891051	          0.51918536	          0.83973323	          0.43001795	
          0.05283190	          0.90456211	          0.12233144	          5.61613668	         15.01026799	        -33.74711324	         10.68228230	          3.20302398	        -20.54419066	         13.65430810	         -5.59159299	         -3.25222537	         -3.25222134	          0.07882592	          0.48965562	          0.05565759	          0.60838130	          0.94987284	          0.63622293	          0.11311818	          0.08926259	          0.78776216	          0.06013998	          0.29295318	          0.79208737	          0.26882742	          0.91036756	          0.95590877	          0.54244048	          0.88006971	          0.44979605	
          0.07044253	          0.65103455	          0.16579279	          5.60826623	         16.46645075	        -35.68385900	         10.20609509	          3.16336832	        -20.91694051	         14.19907383	         -5.38239153	         -3.20460719	         -3.20460342	          0.06240807	          0.52015934	          0.05510048	          0.59136021	          0.97035349	          0.58618802	          0.11334643	          0.09072316	          0.83686325	          0.06145647	          0.29865239	          0.84759253	          0.23878151	          0.92920287	          0.97449690	          0.57199437	          0.91870486	          0.46919415	
          0.08805317	          0.33521635	          0.21076944	          5.60069508	         17.70377733	        -36.82486204	          9.86098322	          3.02531670	        -21.01377624	         14.67647937	         -5.07028837	         -3.20946398	         -3.20945952	          0.05518652	          0.55429984	          0.06861251	          0.60356218	          0.95773177	          0.69201965	          0.12088932	          0.10713024	          0.82580862	          0.05974704	          0.29934086	          0.84798274	          0.24210755	          0.94771113	          0.98056474	          0.60573636	          0.94506348	          0.49010503	
          0.10566380	         -0.03494158	          0.25724391	          5.59356719	         18.72151587	        -37.19601573	          9.62338792	          2.78289523	        -20.83767675	         15.08067542	         -4.66477767	         -3.26480328	         -3.26479876	          0.05466385	          0.56950318	          0.10674886	          0.61043525	          0.89269113	          0.69417739	          0.10792883	          0.12461902	          0.81972378	          0.05803877	          0.28817986	          0.82607205	          0.25042579	          0.95060519	          0.97258801	          0.64642107	          0.96706355	          0.50666515	
          0.12327443	         -0.45256747	          0.30516407	          5.58699596	         19.52127547	        -36.82468261	          9.27002559	          2.44194478	        -20.40933019	         15.39978191	         -4.17472224	         -3.36796631	         -3.36796122	          0.05489523	          0.57976327	          0.19134440	          0.60622620	          0.80423549	          0.59187502	          0.09030897	          0.12248313	          0.89354277	          0.05599124	          0.27070571	          0.78149728	          0.27513451	          0.94332627	          0.90886756	          0.69470704	          0.97864733	          0.51262592	
          0.14088507	         -0.90447281	          0.35443206	          5.58099732	         20.11329242	        -35.80254785	          8.94788410	          2.01153444	        -19.76756466	         15.62758005	         -3.61722118	         -3.51371534	         -3.51371014	          0.05514774	          0.55467335	          0.32735963	          0.58639094	          0.72117689	          0.46216891	          0.07268766	          0.11212175	          0.94633235	          0.05635941	          0.26090218	          0.71470976	          0.32293637	          0.92407778	          0.80831543	          0.74733902	          0.98603057	          0.50231739	
          0.15849570	         -1.36967930	          0.40494377	          5.57554109	         20.50173500	        -34.24259226	          8.97249915	          1.49625889	        -18.95876286	         15.76293302	         -3.01865275	         -3.69483584	         -3.69483039	          0.05977090	          0.49899189	          0.47476099	          0.56344923	          0.65286550	          0.35824947	          0.05847061	          0.11862252	          0.97112354	          0.06215258	          0.26946847	          0.63734193	          0.38377127	          0.89413212	          0.69250702	          0.80120422	          0.99095551	          0.46326553	
          0.17610633	         -1.82216887	          0.45659410	          5.57061664	         20.67963817	        -32.22897433	          9.30543540	          0.89213960	        -18.02378752	         15.80605750	         -2.41145972	         -3.90283520	         -3.90282958	          0.07019307	          0.42452231	          0.60251608	          0.49658317	          0.59878025	          0.27870678	          0.05601137	          0.19541552	          0.97871975	          0.09686591	          0.30337440	          0.55302975	          0.45412230	          0.85801158	          0.57685893	          0.85411209	          0.99404778	          0.36017475	
          0.19371697	         -2.21492045	          0.50927635	          5.56644489	         20.60929957	        -29.79573859	          9.20805746	          0.16649031	        -16.99179386	         15.75305275	         -1.85308008	         -4.12437655	         -4.12437107	          0.15574524	          0.34903032	          0.65129301	          0.39214965	          0.55172437	          0.22641490	          0.22447906	          0.32008855	          0.82305536	          0.13964740	          0.35373724	          0.46906011	          0.54666273	          0.82615024	          0.47359997	          0.91230536	          0.99601857	          0.28055348	
          0.21132760	         -2.54989191	          0.56216921	          5.56296004	         20.60897606	        -28.73430111	          7.60278436	         -0.62938060	        -15.93603933	         15.60444558	         -1.35814367	         -4.33863471	         -4.33862903	          0.17276665	          0.29415563	          0.70950120	          0.33652560	          0.58335825	          0.40621675	          0.33842499	          0.42444549	          0.63946151	          0.17947173	          0.41939209	          0.37679676	          0.65733262	          0.79618986	          0.39773099	          0.95298785	          0.99711509	          0.21869522	
